<svg xmlns="http://www.w3.org/2000/svg" xmlns:xlink="http://www.w3.org/1999/xlink" width="270" zoomAndPan="magnify" viewBox="0 0 202.5 33.749998" height="45" preserveAspectRatio="xMidYMid meet" version="1.0"><defs><g/><clipPath id="b032042c49"><path d="M 41 4 L 77 4 L 77 32 L 41 32 Z M 41 4 " clip-rule="nonzero"/></clipPath><clipPath id="664fc68fb4"><path d="M 39.359375 8.453125 L 74.085938 0.0351562 L 80.226562 25.359375 L 45.496094 33.777344 Z M 39.359375 8.453125 " clip-rule="nonzero"/></clipPath><clipPath id="d2e550277f"><path d="M 39.359375 8.453125 L 74.085938 0.0351562 L 80.226562 25.359375 L 45.496094 33.777344 Z M 39.359375 8.453125 " clip-rule="nonzero"/></clipPath><clipPath id="0cbed248da"><path d="M 1.628906 13.816406 L 8.332031 13.816406 L 8.332031 20.519531 L 1.628906 20.519531 Z M 1.628906 13.816406 " clip-rule="nonzero"/></clipPath></defs><g clip-path="url(#b032042c49)"><g clip-path="url(#664fc68fb4)"><g clip-path="url(#d2e550277f)"><path fill="#9cff1e" d="M 76.359375 11.832031 C 76.492188 12.324219 76.765625 12.621094 76.988281 12.785156 C 76.648438 13.246094 76.308594 13.703125 75.964844 14.160156 C 75.59375 13.878906 74.984375 13.28125 74.71875 12.277344 C 74.089844 13.117188 73.453125 13.957031 72.808594 14.785156 C 72.070312 15.734375 71.324219 16.675781 70.566406 17.609375 C 69.808594 18.542969 69.039062 19.464844 68.257812 20.378906 C 67.472656 21.292969 66.671875 22.195312 65.855469 23.082031 C 65.035156 23.96875 64.199219 24.84375 63.332031 25.691406 C 62.464844 26.539062 61.566406 27.363281 60.617188 28.144531 C 59.664062 28.921875 58.667969 29.664062 57.53125 30.273438 C 56.964844 30.574219 56.355469 30.84375 55.667969 31.007812 C 55.324219 31.089844 54.960938 31.144531 54.574219 31.136719 C 54.378906 31.136719 54.179688 31.113281 53.980469 31.078125 C 53.78125 31.039062 53.582031 30.980469 53.386719 30.902344 C 53.195312 30.820312 53.007812 30.71875 52.835938 30.601562 C 52.679688 30.484375 52.523438 30.371094 52.382812 30.226562 C 52.234375 30.09375 52.113281 29.933594 51.992188 29.777344 C 51.933594 29.695312 51.882812 29.613281 51.828125 29.527344 C 51.800781 29.484375 51.777344 29.441406 51.753906 29.398438 L 51.6875 29.265625 C 51.519531 28.914062 51.40625 28.546875 51.347656 28.1875 L 51.324219 28.054688 L 51.308594 27.921875 C 51.300781 27.832031 51.289062 27.742188 51.285156 27.65625 C 51.277344 27.480469 51.265625 27.304688 51.273438 27.136719 C 51.289062 26.453125 51.394531 25.804688 51.539062 25.1875 C 51.6875 24.566406 51.871094 23.96875 52.070312 23.382812 C 52.476562 22.210938 52.957031 21.09375 53.457031 19.992188 C 53.953125 18.890625 54.476562 17.808594 54.992188 16.730469 C 55.507812 15.65625 56.019531 14.582031 56.492188 13.507812 C 56.96875 12.429688 57.414062 11.347656 57.734375 10.261719 C 57.890625 9.71875 58.015625 9.179688 58.078125 8.660156 L 58.09375 8.464844 L 58.101562 8.371094 L 58.105469 8.277344 C 58.105469 8.214844 58.109375 8.152344 58.109375 8.089844 L 58.097656 7.910156 C 58.082031 7.675781 58.042969 7.460938 57.976562 7.273438 C 57.90625 7.09375 57.8125 6.945312 57.691406 6.820312 C 57.660156 6.789062 57.632812 6.753906 57.59375 6.726562 L 57.539062 6.6875 C 57.519531 6.671875 57.503906 6.65625 57.480469 6.640625 C 57.4375 6.613281 57.390625 6.585938 57.347656 6.558594 L 57.207031 6.488281 C 57.015625 6.398438 56.808594 6.339844 56.585938 6.304688 C 56.367188 6.269531 56.128906 6.269531 55.882812 6.285156 C 55.394531 6.324219 54.878906 6.460938 54.371094 6.644531 C 53.863281 6.835938 53.355469 7.078125 52.859375 7.347656 C 51.863281 7.890625 50.90625 8.546875 49.980469 9.253906 C 49.054688 9.960938 48.160156 10.722656 47.289062 11.511719 C 46.417969 12.300781 45.570312 13.121094 44.742188 13.964844 C 44.328125 14.382812 43.921875 14.808594 43.519531 15.242188 C 43.316406 15.457031 43.117188 15.675781 42.917969 15.890625 C 42.722656 16.109375 42.523438 16.332031 42.339844 16.546875 L 41.050781 15.4375 C 41.257812 15.199219 41.457031 14.980469 41.660156 14.753906 C 41.863281 14.527344 42.070312 14.304688 42.277344 14.082031 C 42.6875 13.640625 43.105469 13.203125 43.53125 12.773438 C 44.378906 11.910156 45.25 11.066406 46.148438 10.253906 C 47.050781 9.4375 47.976562 8.648438 48.949219 7.90625 C 49.925781 7.164062 50.941406 6.460938 52.046875 5.855469 C 52.597656 5.554688 53.175781 5.28125 53.785156 5.050781 C 54.398438 4.832031 55.046875 4.648438 55.75 4.59375 C 56.101562 4.570312 56.464844 4.566406 56.835938 4.625 C 57.203125 4.679688 57.578125 4.785156 57.929688 4.949219 C 58.015625 4.992188 58.101562 5.035156 58.1875 5.082031 L 58.433594 5.234375 C 58.472656 5.261719 58.515625 5.292969 58.554688 5.324219 L 58.675781 5.421875 C 58.761719 5.484375 58.832031 5.558594 58.90625 5.636719 C 59.203125 5.9375 59.425781 6.308594 59.570312 6.683594 C 59.707031 7.0625 59.769531 7.4375 59.792969 7.800781 L 59.804688 8.070312 C 59.804688 8.15625 59.800781 8.242188 59.800781 8.332031 L 59.796875 8.460938 L 59.789062 8.589844 L 59.765625 8.84375 C 59.6875 9.511719 59.539062 10.136719 59.363281 10.742188 C 59.003906 11.949219 58.535156 13.082031 58.046875 14.191406 C 57.558594 15.300781 57.039062 16.386719 56.523438 17.464844 C 56.003906 18.542969 55.488281 19.617188 55.003906 20.691406 C 54.515625 21.769531 54.054688 22.847656 53.675781 23.9375 C 53.488281 24.480469 53.320312 25.027344 53.195312 25.570312 C 53.066406 26.113281 52.980469 26.65625 52.972656 27.167969 C 52.964844 27.296875 52.976562 27.417969 52.976562 27.542969 C 52.984375 27.605469 52.992188 27.664062 52.996094 27.722656 L 53.003906 27.8125 L 53.023438 27.898438 C 53.054688 28.132812 53.125 28.335938 53.214844 28.523438 L 53.25 28.59375 C 53.261719 28.617188 53.273438 28.640625 53.285156 28.660156 C 53.316406 28.699219 53.339844 28.742188 53.367188 28.785156 C 53.433594 28.859375 53.488281 28.941406 53.566406 29.007812 C 53.632812 29.082031 53.722656 29.140625 53.800781 29.207031 C 53.875 29.253906 53.953125 29.296875 54.035156 29.332031 C 54.117188 29.367188 54.207031 29.390625 54.300781 29.410156 C 54.394531 29.425781 54.492188 29.4375 54.597656 29.441406 C 54.808594 29.441406 55.039062 29.414062 55.277344 29.355469 C 55.753906 29.242188 56.25 29.03125 56.738281 28.773438 C 57.710938 28.253906 58.644531 27.566406 59.542969 26.832031 C 60.4375 26.09375 61.304688 25.300781 62.144531 24.476562 C 62.984375 23.652344 63.804688 22.800781 64.605469 21.933594 C 65.410156 21.0625 66.195312 20.175781 66.96875 19.273438 C 67.742188 18.375 68.5 17.460938 69.25 16.539062 C 70 15.617188 70.738281 14.683594 71.46875 13.746094 C 72.105469 12.921875 72.734375 12.09375 73.359375 11.261719 C 72.324219 11.285156 71.585938 10.855469 71.214844 10.578125 C 71.546875 10.136719 71.875 9.695312 72.203125 9.253906 C 72.425781 9.417969 72.789062 9.597656 73.292969 9.578125 C 73.796875 9.5625 74.457031 9.347656 75.25 8.730469 L 76.582031 9.671875 C 76.242188 10.648438 76.230469 11.335938 76.359375 11.832031 Z M 76.359375 11.832031 " fill-opacity="1" fill-rule="nonzero"/></g></g></g><g clip-path="url(#0cbed248da)"><path fill="#9cff1e" d="M 8.105469 16.175781 L 8.105469 17.953125 C 5.953125 18.582031 5.632812 19.699219 5.632812 20.308594 L 3.78125 20.308594 C 3.78125 19.800781 3.898438 18.878906 4.605469 17.988281 L 1.632812 17.988281 L 1.632812 16.136719 L 4.605469 16.136719 C 3.898438 15.25 3.78125 14.328125 3.78125 13.816406 L 5.632812 13.816406 C 5.632812 14.425781 5.953125 15.542969 8.105469 16.175781 Z M 8.105469 16.175781 " fill-opacity="1" fill-rule="nonzero"/></g><g fill="#ffffff" fill-opacity="1"><g transform="translate(12.583519, 20.051878)"><g><path d="M 0.171875 0 L 0.171875 -6.21875 L 5.0625 -6.21875 C 5.539062 -6.21875 5.957031 -6.113281 6.3125 -5.90625 C 6.664062 -5.707031 6.941406 -5.425781 7.140625 -5.0625 C 7.347656 -4.707031 7.453125 -4.300781 7.453125 -3.84375 C 7.453125 -3.394531 7.351562 -2.988281 7.15625 -2.625 C 6.957031 -2.269531 6.6875 -1.988281 6.34375 -1.78125 L 7.453125 0 L 4.71875 0 L 3.84375 -1.453125 L 2.484375 -1.453125 L 2.484375 0 Z M 2.484375 -3.40625 L 4.625 -3.40625 C 4.695312 -3.40625 4.773438 -3.410156 4.859375 -3.421875 C 4.941406 -3.441406 5.007812 -3.476562 5.0625 -3.53125 C 5.113281 -3.59375 5.140625 -3.695312 5.140625 -3.84375 C 5.140625 -3.976562 5.113281 -4.078125 5.0625 -4.140625 C 5.007812 -4.203125 4.941406 -4.238281 4.859375 -4.25 C 4.773438 -4.257812 4.695312 -4.265625 4.625 -4.265625 L 2.484375 -4.265625 Z M 2.484375 -3.40625 "/></g></g></g><g fill="#ffffff" fill-opacity="1"><g transform="translate(20.125279, 20.051878)"><g><path d="M 0.171875 0 L 0.171875 -6.21875 L 2.484375 -6.21875 L 2.484375 0 Z M 0.171875 0 "/></g></g></g><g fill="#ffffff" fill-opacity="1"><g transform="translate(22.793354, 20.051878)"><g><path d="M 0.171875 0 L 0.171875 -6.21875 L 3.015625 -6.21875 L 4.9375 -2.671875 L 6.859375 -6.21875 L 9.703125 -6.21875 L 9.703125 0 L 7.390625 0 L 7.390625 -2.953125 L 5.703125 0 L 4.1875 0 L 2.484375 -2.953125 L 2.484375 0 Z M 0.171875 0 "/></g></g></g><g fill="#ffffff" fill-opacity="1"><g transform="translate(32.683019, 20.051878)"><g><path d="M 0.171875 0 L 0.171875 -6.21875 L 5.59375 -6.21875 C 6.070312 -6.21875 6.441406 -6.148438 6.703125 -6.015625 C 6.972656 -5.890625 7.164062 -5.707031 7.28125 -5.46875 C 7.394531 -5.226562 7.453125 -4.953125 7.453125 -4.640625 C 7.453125 -4.441406 7.40625 -4.242188 7.3125 -4.046875 C 7.226562 -3.847656 7.113281 -3.65625 6.96875 -3.46875 C 7.238281 -3.28125 7.457031 -3.046875 7.625 -2.765625 C 7.800781 -2.484375 7.890625 -2.175781 7.890625 -1.84375 C 7.890625 -1.5 7.816406 -1.1875 7.671875 -0.90625 C 7.535156 -0.632812 7.316406 -0.414062 7.015625 -0.25 C 6.722656 -0.0820312 6.34375 0 5.875 0 Z M 2.484375 -4.03125 L 4.625 -4.03125 C 4.738281 -4.03125 4.851562 -4.046875 4.96875 -4.078125 C 5.082031 -4.109375 5.140625 -4.207031 5.140625 -4.375 C 5.140625 -4.539062 5.082031 -4.640625 4.96875 -4.671875 C 4.851562 -4.703125 4.738281 -4.71875 4.625 -4.71875 L 2.484375 -4.71875 Z M 2.484375 -1.6875 L 5.0625 -1.6875 C 5.1875 -1.6875 5.300781 -1.695312 5.40625 -1.71875 C 5.519531 -1.75 5.578125 -1.847656 5.578125 -2.015625 C 5.578125 -2.179688 5.519531 -2.273438 5.40625 -2.296875 C 5.300781 -2.328125 5.1875 -2.34375 5.0625 -2.34375 L 2.484375 -2.34375 Z M 2.484375 -1.6875 "/></g></g></g><g fill="#ffffff" fill-opacity="1"><g transform="translate(40.669456, 20.051878)"><g><path d="M 0.171875 0 L 0.171875 -6.21875 L 6.75 -6.21875 L 6.75 -4.453125 L 2.484375 -4.453125 L 2.484375 -3.875 L 6.75 -3.875 L 6.75 -2.359375 L 2.484375 -2.359375 L 2.484375 -1.78125 L 6.75 -1.78125 L 6.75 0 Z M 0.171875 0 "/></g></g></g><g fill="#ffffff" fill-opacity="1"><g transform="translate(47.517516, 20.051878)"><g><path d="M 0.171875 0 L 0.171875 -6.21875 L 5.0625 -6.21875 C 5.539062 -6.21875 5.957031 -6.113281 6.3125 -5.90625 C 6.664062 -5.707031 6.941406 -5.425781 7.140625 -5.0625 C 7.347656 -4.707031 7.453125 -4.300781 7.453125 -3.84375 C 7.453125 -3.394531 7.351562 -2.988281 7.15625 -2.625 C 6.957031 -2.269531 6.6875 -1.988281 6.34375 -1.78125 L 7.453125 0 L 4.71875 0 L 3.84375 -1.453125 L 2.484375 -1.453125 L 2.484375 0 Z M 2.484375 -3.40625 L 4.625 -3.40625 C 4.695312 -3.40625 4.773438 -3.410156 4.859375 -3.421875 C 4.941406 -3.441406 5.007812 -3.476562 5.0625 -3.53125 C 5.113281 -3.59375 5.140625 -3.695312 5.140625 -3.84375 C 5.140625 -3.976562 5.113281 -4.078125 5.0625 -4.140625 C 5.007812 -4.203125 4.941406 -4.238281 4.859375 -4.25 C 4.773438 -4.257812 4.695312 -4.265625 4.625 -4.265625 L 2.484375 -4.265625 Z M 2.484375 -3.40625 "/></g></g></g><g fill="#ffffff" fill-opacity="1"><g transform="translate(55.059276, 20.051878)"><g><path d="M 0.171875 0 L 0.171875 -6.21875 L 2.484375 -6.21875 L 2.484375 0 Z M 0.171875 0 "/></g></g></g><g fill="#ffffff" fill-opacity="1"><g transform="translate(57.727351, 20.051878)"><g><path d="M 4 0.09375 C 2.632812 0.09375 1.640625 -0.171875 1.015625 -0.703125 C 0.398438 -1.234375 0.09375 -2.039062 0.09375 -3.125 C 0.09375 -4.195312 0.398438 -4.992188 1.015625 -5.515625 C 1.640625 -6.046875 2.632812 -6.3125 4 -6.3125 C 5.363281 -6.3125 6.351562 -6.046875 6.96875 -5.515625 C 7.59375 -4.992188 7.90625 -4.195312 7.90625 -3.125 C 7.90625 -2.039062 7.59375 -1.234375 6.96875 -0.703125 C 6.351562 -0.171875 5.363281 0.09375 4 0.09375 Z M 4 -1.859375 C 4.457031 -1.859375 4.800781 -1.914062 5.03125 -2.03125 C 5.257812 -2.15625 5.410156 -2.3125 5.484375 -2.5 C 5.554688 -2.695312 5.59375 -2.90625 5.59375 -3.125 C 5.59375 -3.34375 5.554688 -3.546875 5.484375 -3.734375 C 5.410156 -3.921875 5.257812 -4.070312 5.03125 -4.1875 C 4.800781 -4.300781 4.457031 -4.359375 4 -4.359375 C 3.539062 -4.359375 3.195312 -4.300781 2.96875 -4.1875 C 2.738281 -4.070312 2.585938 -3.921875 2.515625 -3.734375 C 2.441406 -3.546875 2.40625 -3.34375 2.40625 -3.125 C 2.40625 -2.90625 2.441406 -2.695312 2.515625 -2.5 C 2.585938 -2.3125 2.738281 -2.15625 2.96875 -2.03125 C 3.207031 -1.914062 3.550781 -1.859375 4 -1.859375 Z M 4 -1.859375 "/></g></g></g><g fill="#9cff1e" fill-opacity="1"><g transform="translate(12.583519, 25.260262)"><g><path d="M 1.171875 0 L 1.171875 -1.828125 L 0.03125 -1.828125 L 0.03125 -2.65625 L 3.296875 -2.65625 L 3.296875 -1.828125 L 2.171875 -1.828125 L 2.171875 0 Z M 1.171875 0 "/></g></g></g><g fill="#9cff1e" fill-opacity="1"><g transform="translate(15.926304, 25.260262)"><g><path d="M 0.078125 0 L 0.078125 -2.65625 L 2.890625 -2.65625 L 2.890625 -1.890625 L 1.0625 -1.890625 L 1.0625 -1.65625 L 2.890625 -1.65625 L 2.890625 -1 L 1.0625 -1 L 1.0625 -0.765625 L 2.890625 -0.765625 L 2.890625 0 Z M 0.078125 0 "/></g></g></g><g fill="#9cff1e" fill-opacity="1"><g transform="translate(18.85124, 25.260262)"><g><path d="M 1.703125 0.03125 C 1.117188 0.03125 0.691406 -0.078125 0.421875 -0.296875 C 0.160156 -0.523438 0.03125 -0.867188 0.03125 -1.328125 C 0.03125 -1.796875 0.160156 -2.140625 0.421875 -2.359375 C 0.691406 -2.585938 1.117188 -2.703125 1.703125 -2.703125 C 2.234375 -2.703125 2.640625 -2.601562 2.921875 -2.40625 C 3.203125 -2.207031 3.351562 -1.898438 3.375 -1.484375 L 2.359375 -1.484375 C 2.335938 -1.609375 2.273438 -1.703125 2.171875 -1.765625 C 2.078125 -1.828125 1.921875 -1.859375 1.703125 -1.859375 C 1.515625 -1.859375 1.367188 -1.832031 1.265625 -1.78125 C 1.171875 -1.738281 1.109375 -1.675781 1.078125 -1.59375 C 1.046875 -1.507812 1.03125 -1.421875 1.03125 -1.328125 C 1.03125 -1.234375 1.046875 -1.144531 1.078125 -1.0625 C 1.109375 -0.988281 1.171875 -0.925781 1.265625 -0.875 C 1.367188 -0.820312 1.515625 -0.796875 1.703125 -0.796875 C 1.921875 -0.796875 2.078125 -0.828125 2.171875 -0.890625 C 2.273438 -0.953125 2.335938 -1.050781 2.359375 -1.1875 L 3.375 -1.1875 C 3.351562 -0.757812 3.203125 -0.445312 2.921875 -0.25 C 2.648438 -0.0625 2.242188 0.03125 1.703125 0.03125 Z M 1.703125 0.03125 "/></g></g></g><g fill="#9cff1e" fill-opacity="1"><g transform="translate(22.258601, 25.260262)"><g><path d="M 0.078125 0 L 0.078125 -2.65625 L 1.0625 -2.65625 L 1.0625 -1.75 L 2.625 -1.75 L 2.625 -2.65625 L 3.609375 -2.65625 L 3.609375 0 L 2.625 0 L 2.625 -0.90625 L 1.0625 -0.90625 L 1.0625 0 Z M 0.078125 0 "/></g></g></g><g fill="#9cff1e" fill-opacity="1"><g transform="translate(25.943261, 25.260262)"><g><path d="M 0.078125 0 L 0.078125 -2.65625 L 1.359375 -2.65625 L 2.515625 -1.09375 L 2.515625 -2.65625 L 3.5 -2.65625 L 3.5 0 L 2.203125 0 L 1.0625 -1.5625 L 1.0625 0 Z M 0.078125 0 "/></g></g></g><g fill="#9cff1e" fill-opacity="1"><g transform="translate(29.521558, 25.260262)"><g><path d="M 1.703125 0.03125 C 1.117188 0.03125 0.691406 -0.078125 0.421875 -0.296875 C 0.160156 -0.523438 0.03125 -0.867188 0.03125 -1.328125 C 0.03125 -1.796875 0.160156 -2.140625 0.421875 -2.359375 C 0.691406 -2.585938 1.117188 -2.703125 1.703125 -2.703125 C 2.285156 -2.703125 2.707031 -2.585938 2.96875 -2.359375 C 3.238281 -2.140625 3.375 -1.796875 3.375 -1.328125 C 3.375 -0.867188 3.238281 -0.523438 2.96875 -0.296875 C 2.707031 -0.078125 2.285156 0.03125 1.703125 0.03125 Z M 1.703125 -0.796875 C 1.898438 -0.796875 2.046875 -0.820312 2.140625 -0.875 C 2.242188 -0.925781 2.3125 -0.988281 2.34375 -1.0625 C 2.375 -1.144531 2.390625 -1.234375 2.390625 -1.328125 C 2.390625 -1.421875 2.375 -1.507812 2.34375 -1.59375 C 2.3125 -1.675781 2.242188 -1.738281 2.140625 -1.78125 C 2.046875 -1.832031 1.898438 -1.859375 1.703125 -1.859375 C 1.515625 -1.859375 1.367188 -1.832031 1.265625 -1.78125 C 1.171875 -1.738281 1.109375 -1.675781 1.078125 -1.59375 C 1.046875 -1.507812 1.03125 -1.421875 1.03125 -1.328125 C 1.03125 -1.234375 1.046875 -1.144531 1.078125 -1.0625 C 1.109375 -0.988281 1.171875 -0.925781 1.265625 -0.875 C 1.367188 -0.820312 1.515625 -0.796875 1.703125 -0.796875 Z M 1.703125 -0.796875 "/></g></g></g><g fill="#9cff1e" fill-opacity="1"><g transform="translate(32.940315, 25.260262)"><g><path d="M 0.078125 0 L 0.078125 -2.65625 L 1.0625 -2.65625 L 1.0625 -0.828125 L 2.8125 -0.828125 L 2.8125 0 Z M 0.078125 0 "/></g></g></g><g fill="#9cff1e" fill-opacity="1"><g transform="translate(35.789278, 25.260262)"><g><path d="M 1.703125 0.03125 C 1.117188 0.03125 0.691406 -0.078125 0.421875 -0.296875 C 0.160156 -0.523438 0.03125 -0.867188 0.03125 -1.328125 C 0.03125 -1.796875 0.160156 -2.140625 0.421875 -2.359375 C 0.691406 -2.585938 1.117188 -2.703125 1.703125 -2.703125 C 2.285156 -2.703125 2.707031 -2.585938 2.96875 -2.359375 C 3.238281 -2.140625 3.375 -1.796875 3.375 -1.328125 C 3.375 -0.867188 3.238281 -0.523438 2.96875 -0.296875 C 2.707031 -0.078125 2.285156 0.03125 1.703125 0.03125 Z M 1.703125 -0.796875 C 1.898438 -0.796875 2.046875 -0.820312 2.140625 -0.875 C 2.242188 -0.925781 2.3125 -0.988281 2.34375 -1.0625 C 2.375 -1.144531 2.390625 -1.234375 2.390625 -1.328125 C 2.390625 -1.421875 2.375 -1.507812 2.34375 -1.59375 C 2.3125 -1.675781 2.242188 -1.738281 2.140625 -1.78125 C 2.046875 -1.832031 1.898438 -1.859375 1.703125 -1.859375 C 1.515625 -1.859375 1.367188 -1.832031 1.265625 -1.78125 C 1.171875 -1.738281 1.109375 -1.675781 1.078125 -1.59375 C 1.046875 -1.507812 1.03125 -1.421875 1.03125 -1.328125 C 1.03125 -1.234375 1.046875 -1.144531 1.078125 -1.0625 C 1.109375 -0.988281 1.171875 -0.925781 1.265625 -0.875 C 1.367188 -0.820312 1.515625 -0.796875 1.703125 -0.796875 Z M 1.703125 -0.796875 "/></g></g></g><g fill="#9cff1e" fill-opacity="1"><g transform="translate(39.208035, 25.260262)"><g><path d="M 1.59375 0.03125 C 1.101562 0.03125 0.71875 -0.078125 0.4375 -0.296875 C 0.164062 -0.523438 0.03125 -0.867188 0.03125 -1.328125 C 0.03125 -1.796875 0.171875 -2.140625 0.453125 -2.359375 C 0.742188 -2.585938 1.160156 -2.703125 1.703125 -2.703125 C 2.765625 -2.703125 3.320312 -2.332031 3.375 -1.59375 L 2.359375 -1.59375 C 2.335938 -1.664062 2.273438 -1.726562 2.171875 -1.78125 C 2.078125 -1.832031 1.921875 -1.859375 1.703125 -1.859375 C 1.515625 -1.859375 1.367188 -1.832031 1.265625 -1.78125 C 1.171875 -1.726562 1.109375 -1.660156 1.078125 -1.578125 C 1.046875 -1.492188 1.03125 -1.398438 1.03125 -1.296875 C 1.03125 -1.191406 1.046875 -1.09375 1.078125 -1 C 1.109375 -0.90625 1.171875 -0.828125 1.265625 -0.765625 C 1.367188 -0.710938 1.515625 -0.6875 1.703125 -0.6875 C 1.898438 -0.6875 2.050781 -0.703125 2.15625 -0.734375 C 2.269531 -0.765625 2.335938 -0.828125 2.359375 -0.921875 L 1.640625 -0.921875 L 1.640625 -1.453125 L 3.375 -1.453125 L 3.375 0 L 2.796875 0 L 2.71875 -0.390625 C 2.613281 -0.253906 2.46875 -0.148438 2.28125 -0.078125 C 2.101562 -0.00390625 1.875 0.03125 1.59375 0.03125 Z M 1.59375 0.03125 "/></g></g></g><g fill="#9cff1e" fill-opacity="1"><g transform="translate(42.615394, 25.260262)"><g><path d="M 1.390625 0 L 1.390625 -0.875 L 0.03125 -2.65625 L 1.171875 -2.65625 L 1.890625 -1.671875 L 2.59375 -2.65625 L 3.734375 -2.65625 L 2.375 -0.875 L 2.375 0 Z M 1.390625 0 "/></g></g></g></svg>