<?xml version="1.0" encoding="UTF-8"?>
<svg version="1.1" xmlns="http://www.w3.org/2000/svg" width="641" height="634">
<path d="M0 0 C10.55454988 9.07494008 18.5774133 20.37526495 26.84204102 31.47509766 C30.52361912 36.41947516 34.24208951 41.32451913 38.0703125 46.15625 C43.77609152 53.35812128 49.34551467 60.66129106 54.91699219 67.96728516 C57.95552373 71.94649946 61.01165355 75.91214071 64.06640625 79.87890625 C65.64343229 81.92722742 67.21897109 83.97669455 68.79296875 86.02734375 C73.65435333 92.35900074 78.54123538 98.67009241 83.4453125 104.96875 C89.92752276 113.29431705 96.36605305 121.65211518 102.7890625 130.0234375 C112.71698096 142.9490716 122.72501651 155.81261564 132.80859375 168.6171875 C134.58158425 170.8687082 136.34944005 173.12411764 138.11328125 175.3828125 C144.62698337 183.71615567 151.25964937 191.94705047 157.95117188 200.13818359 C159.31141313 201.8047014 160.66819168 203.47395067 162.0234375 205.14453125 C163.49982472 206.95988493 164.98240426 208.7702295 166.47265625 210.57421875 C167.73280672 212.10386674 168.97682283 213.64704715 170.19921875 215.20703125 C176.31231878 222.73848395 184.68937088 228.22290792 194.48828125 229.3046875 C209.18289363 229.48722927 218.55976768 223.94760658 229.359375 214.25 C238.18573602 205.01626847 240.83462641 190.79452562 240.58984375 178.421875 C240.47983094 176.55463054 240.32285357 174.6900879 240.14453125 172.828125 C238.37536074 153.81487087 242.65541748 135.39600254 254.80371094 120.27832031 C268.28049801 104.41436937 285.59886556 93.31523412 306.4453125 89.96875 C320.35346303 88.98435107 334.01228941 89.900717 345.6953125 98.34375 C351.19435572 103.29604322 353.5215797 106.92433288 354.06420898 114.35546875 C354.40351851 124.49852931 350.98715608 132.10236563 346.4453125 140.96875 C318.24561206 197.18693679 320.40769913 260.67064404 332.41015625 321.02270508 C340.62092763 362.32859377 339.71271068 404.29982034 328.4453125 444.96875 C328.22004883 445.7839209 327.99478516 446.5990918 327.76269531 447.43896484 C320.64327873 472.41013228 307.58601932 495.52688117 290.4453125 514.96875 C289.58292969 515.95230469 288.72054688 516.93585937 287.83203125 517.94921875 C255.54429637 554.24051755 208.26494271 579.27564679 160.4453125 586.96875 C159.25292969 587.16210938 158.06054688 587.35546875 156.83203125 587.5546875 C150.28303488 588.32153371 143.65593603 588.2131668 137.0703125 588.21875 C135.99884476 588.21976212 135.99884476 588.21976212 134.9057312 588.22079468 C123.8368803 588.20419551 113.21712735 587.67168008 102.4453125 584.96875 C101.41059814 584.71931641 101.41059814 584.71931641 100.35498047 584.46484375 C71.63994623 577.36334685 48.89630024 561.25143757 27 542.05859375 C24.03209421 539.46384571 21.01108136 536.94774707 17.9453125 534.46875 C12.27943661 529.87729206 6.78740292 525.09776331 1.2890625 520.30859375 C-2.40956549 517.08820435 -6.13628303 513.90162356 -9.8671875 510.71875 C-13.87828006 507.29448395 -17.84124456 503.83147725 -21.7421875 500.28125 C-24.99139149 497.32742819 -28.31343435 494.52425252 -31.7421875 491.78125 C-37.80788968 486.87871514 -43.43633727 481.54616963 -49.109375 476.19921875 C-52.2377915 473.25339137 -55.42942312 470.39612853 -58.68359375 467.58984375 C-65.27679905 461.87756776 -71.68205097 455.94819664 -78.10375977 450.04467773 C-81.12902125 447.26610106 -84.17587725 444.51437883 -87.2421875 441.78125 C-97.48851135 432.57776686 -107.5893582 423.16176412 -117.18359375 413.27734375 C-119.16199874 411.35108782 -121.1751938 409.55054567 -123.265625 407.75 C-127.91970275 403.70931334 -132.27158961 399.39896289 -136.6171875 395.03125 C-137.7628418 393.89139648 -137.7628418 393.89139648 -138.93164062 392.72851562 C-143.14284164 388.51010982 -147.17133707 384.19810197 -151.06030273 379.68139648 C-152.80538027 377.6814424 -154.6455617 375.81204388 -156.5546875 373.96875 C-160.43395655 370.12642637 -164.04484309 366.15055346 -167.5546875 361.96875 C-168.25319824 361.14093018 -168.25319824 361.14093018 -168.96582031 360.29638672 C-175.02850273 353.08205938 -180.90063477 345.78142984 -186.1796875 337.96875 C-186.58098877 337.38279053 -186.98229004 336.79683105 -187.39575195 336.19311523 C-191.90857577 329.33994933 -194.83601119 322.26215282 -193.5546875 313.96875 C-190.3988592 304.04812052 -184.4276098 298.16919389 -175.5546875 292.96875 C-165.60714315 288.84504071 -156.16174306 291.17167566 -146.5546875 294.96875 C-137.4997413 299.28806342 -130.5747905 306.35419855 -123.44921875 313.25 C-120.19856716 316.38988987 -116.84343478 319.38062679 -113.42749023 322.33886719 C-110.79916919 324.62627056 -108.24082254 326.98126255 -105.6796875 329.34375 C-102.05532405 332.68103516 -98.41619474 335.99848479 -94.7421875 339.28125 C-89.24817408 344.21357515 -83.86006335 349.25663934 -78.47265625 354.3046875 C-75.94305255 356.67450697 -73.40451211 359.03392027 -70.85546875 361.3828125 C-65.48882866 366.34014467 -60.1680221 371.31443837 -55.04296875 376.5234375 C-54.28483887 377.29324951 -53.52670898 378.06306152 -52.74560547 378.85620117 C-51.2777107 380.35447166 -49.81671269 381.8595403 -48.36376953 383.37231445 C-44.71562699 387.10155606 -41.55873786 390.13993159 -36.5546875 391.96875 C-33.27583218 391.75767707 -33.27583218 391.75767707 -30.5546875 390.96875 C-29.65501582 388.20052944 -29.12293911 386.01526894 -30.26538086 383.24609375 C-34.2432003 376.76461325 -39.49102198 371.73368037 -44.9296875 366.46875 C-55.39437143 356.25322521 -55.39437143 356.25322521 -58.84375 352.1875 C-64.34755134 345.74767802 -70.53662855 339.92163141 -76.5546875 333.96875 C-90.66714646 320.00913356 -90.66714646 320.00913356 -95.89453125 313.8515625 C-99.41013001 309.86445991 -103.26788715 306.19572728 -107.0546875 302.46875 C-112.19546544 297.40918498 -117.19368998 292.32736558 -121.89257812 286.85351562 C-124.63400169 283.74485084 -127.594236 280.8668762 -130.5546875 277.96875 C-134.83214754 273.74058495 -138.96440057 269.48454364 -142.8515625 264.890625 C-145.71829539 261.65568788 -148.83402272 258.67044991 -151.9296875 255.65625 C-154.63052291 252.89110899 -157.14989334 250.01616804 -159.68066406 247.09667969 C-162.83928628 243.51010449 -166.13920914 240.05895455 -169.4296875 236.59375 C-177.67427571 227.86463049 -185.76842268 219.1068477 -193.296875 209.7421875 C-194.79022748 207.90779258 -196.31626033 206.09948 -197.875 204.3203125 C-207.22235268 193.51540652 -214.23387522 180.87142284 -213.80078125 166.22265625 C-212.98234472 158.7268169 -209.89493052 152.28732875 -204.5546875 146.96875 C-193.33535135 138.28898451 -182.53971484 135.51254872 -168.5546875 136.96875 C-153.34075189 139.82136293 -142.2808868 148.43568171 -131.5546875 158.96875 C-130.72710937 159.76925781 -129.89953125 160.56976563 -129.046875 161.39453125 C-125.64781132 164.73022255 -122.39591354 168.13094406 -119.2734375 171.7265625 C-115.57863718 175.97462132 -111.74195686 180.07264937 -107.8671875 184.15625 C-101.52782048 190.86455939 -95.23665825 197.61339636 -88.99023438 204.40820312 C-86.51544186 207.09848777 -84.03469771 209.78327616 -81.5546875 212.46875 C-80.55466048 213.55205839 -79.55466044 214.63539169 -78.5546875 215.71875 C-78.0596875 216.255 -77.5646875 216.79125 -77.0546875 217.34375 C-71.5546875 223.30208333 -66.0546875 229.26041667 -60.5546875 235.21875 C-60.05960693 235.75508057 -59.56452637 236.29141113 -59.05444336 236.84399414 C-58.05523012 237.92648871 -57.05604388 239.00900821 -56.05688477 240.09155273 C-53.54506915 242.81292508 -51.03277417 245.53385195 -48.51953125 248.25390625 C-39.58693737 257.92285307 -30.66546174 267.59975075 -21.875 277.3984375 C-19.24388822 280.31303607 -16.58804616 283.20403325 -13.9296875 286.09375 C-9.14234357 291.30290086 -4.41958087 296.56005743 0.1328125 301.9765625 C0.6690625 302.61335938 1.2053125 303.25015625 1.7578125 303.90625 C2.22832031 304.47214844 2.69882812 305.03804688 3.18359375 305.62109375 C5.3334443 307.91737375 6.62446124 307.98533785 9.8203125 308.28125 C13.43476426 308.27828009 13.43476426 308.27828009 15.8203125 306.28125 C17.66453057 303.65678583 18.36700273 302.17945053 18.4453125 298.96875 C16.19297894 294.55632863 13.05500784 290.98814878 9.8203125 287.28125 C9.28688232 286.66403076 8.75345215 286.04681152 8.20385742 285.41088867 C5.09774287 281.82827055 1.94662783 278.29063406 -1.2421875 274.78125 C-5.09319755 270.54166957 -8.70312705 266.13942888 -12.3046875 261.6875 C-14.48970319 259.04727271 -16.74640141 256.5014528 -19.0546875 253.96875 C-22.97360002 249.66883209 -26.64639619 245.20955453 -30.3046875 240.6875 C-32.48970319 238.04727271 -34.74640141 235.5014528 -37.0546875 232.96875 C-40.07751171 229.64885514 -42.97980911 226.27110888 -45.8046875 222.78125 C-49.40938835 218.33022808 -53.10839017 213.97676395 -56.8671875 209.65625 C-57.41826172 209.02275635 -57.96933594 208.3892627 -58.53710938 207.73657227 C-59.65631235 206.45043345 -60.77561587 205.16438212 -61.89501953 203.87841797 C-68.0154721 196.83602609 -74.11499087 189.77872199 -79.9921875 182.53125 C-83.59104948 178.09635474 -87.30204638 173.77310749 -91.0546875 169.46875 C-95.57254588 164.28590858 -99.99395117 159.04401185 -104.3203125 153.69921875 C-106.81627473 150.64908309 -109.3701234 147.65293301 -111.9296875 144.65625 C-115.73079275 140.19811453 -119.40070955 135.65964945 -122.9921875 131.03125 C-126.72063592 126.22715953 -130.56869888 121.56126029 -134.5546875 116.96875 C-139.92537244 110.77021713 -145.02449616 104.39995171 -150.04052734 97.91259766 C-151.70370897 95.7774393 -153.38777712 93.65979722 -155.07421875 91.54296875 C-178.04334074 62.59960905 -178.04334074 62.59960905 -176.5546875 46.96875 C-174.44852571 37.17509767 -169.14364962 29.29604785 -161.0234375 23.4765625 C-151.51682826 17.67031066 -141.72419241 16.57057448 -130.79296875 18.44140625 C-112.05711714 23.35331711 -99.4265364 39.88410344 -87.8046875 54.25 C-85.61967181 56.89022729 -83.36297359 59.4360472 -81.0546875 61.96875 C-78.03186329 65.28864486 -75.12956589 68.66639112 -72.3046875 72.15625 C-67.09082312 78.59423906 -61.64427497 84.82038566 -56.20556641 91.06787109 C-49.30379665 99.01480682 -42.48781464 107.03552899 -35.6965332 115.0769043 C-30.85062944 120.81066018 -25.9614746 126.50706897 -21.07080078 132.20263672 C-18.06533316 135.70369192 -15.06322935 139.20763345 -12.06152344 142.71191406 C-9.52783542 145.66926252 -6.991261 148.62404679 -4.44921875 151.57421875 C0.14137803 156.90710322 4.70292648 162.25060945 9.1328125 167.71875 C12.68276571 172.09382747 16.40095071 176.27424192 20.1953125 180.4375 C23.31464126 183.94674486 26.24280383 187.60037123 29.1953125 191.25 C31.38032819 193.89022729 33.63702641 196.4360472 35.9453125 198.96875 C41.11701577 204.65134943 45.93743558 210.60295411 50.74902344 216.59130859 C52.07888687 218.24325587 53.41772053 219.8875958 54.7578125 221.53125 C55.55832031 222.52253906 56.35882813 223.51382813 57.18359375 224.53515625 C60.14945396 227.72640134 62.11869089 228.77116806 66.3828125 229.40625 C69.61553808 229.18042894 69.61553808 229.18042894 72.3828125 226.90625 C74.77460585 224.11803009 74.77460585 224.11803009 74.3671875 220.6796875 C73.31910002 216.4606913 71.52108026 213.88198936 68.7578125 210.65625 C67.75286347 209.43184472 66.74901128 208.2065386 65.74609375 206.98046875 C65.21064941 206.33384277 64.67520508 205.6872168 64.12353516 205.02099609 C61.15767676 201.39414045 58.30952307 197.67599938 55.4453125 193.96875 C51.29473222 188.6226679 47.13223563 183.286414 42.9453125 177.96875 C37.01827072 170.43936162 31.13980441 162.87242852 25.26123047 155.30517578 C23.43973942 152.96157947 21.61662473 150.61925573 19.79296875 148.27734375 C12.98175359 139.5295255 6.19581616 130.76349937 -0.5546875 121.96875 C-2.15873842 119.88532754 -3.76290767 117.8019962 -5.3671875 115.71875 C-10.83573713 108.61135718 -16.2837432 101.48832085 -21.72607422 94.36083984 C-23.67796096 91.80749054 -25.63384043 89.25722811 -27.58984375 86.70703125 C-67.06700751 35.17243633 -67.06700751 35.17243633 -64.5546875 9.96875 C-62.5159614 2.0127457 -57.14785173 -3.3967693 -50.5546875 -8.03125 C-32.87680173 -17.93201395 -15.06153745 -11.97553436 0 0 Z " fill="#F3C750" transform="translate(286.5546875,46.03125)"/>
<path d="M0 0 C1.08398438 1.9074707 1.08398438 1.9074707 2.09375 4.42578125 C2.47845459 5.35769287 2.86315918 6.28960449 3.25952148 7.24975586 C3.66887939 8.26046143 4.0782373 9.27116699 4.5 10.3125 C15.54907969 36.57576817 30.59038853 59.16369914 50 80 C51.08474609 81.18335938 51.08474609 81.18335938 52.19140625 82.390625 C70.06222908 101.13835792 93.92738368 115.37390352 119 122 C118.51424554 126.7765855 117.91138899 130.56340198 116 135 C82.89064838 125.4458387 52.85755973 107.02816526 31 80 C30.11373676 78.94883453 29.22696922 77.89809415 28.33984375 76.84765625 C20.25509639 67.14728915 13.45017841 56.84400275 7 46 C6.54850586 45.24283691 6.09701172 44.48567383 5.63183594 43.70556641 C0.67770628 35.31198029 -3.72912616 26.77680461 -7.5625 17.8125 C-7.89733398 17.03455078 -8.23216797 16.25660156 -8.57714844 15.45507812 C-10.4403351 10.93552522 -11.52921354 6.86909283 -12 2 C-10.56656 1.46809459 -9.12804633 0.94984742 -7.6875 0.4375 C-6.48673828 0.00244141 -6.48673828 0.00244141 -5.26171875 -0.44140625 C-3 -1 -3 -1 0 0 Z " fill="#626365" transform="translate(12,419)"/>
<path d="M0 0 C4.57747361 0.63380404 8.41722762 2.43948041 12.5 4.5 C13.2027002 4.85384766 13.90540039 5.20769531 14.62939453 5.57226562 C32.7050528 14.90638353 50.22440207 29.09452285 63 45 C63.73347656 45.89589844 64.46695313 46.79179688 65.22265625 47.71484375 C76.33324484 61.67791308 85.47954651 76.83786178 93 93 C93.3295166 93.68852051 93.6590332 94.37704102 93.99853516 95.08642578 C101.89482654 111.60783888 107.76651809 128.95409144 111 147 C106.41989331 148.46563414 102.85802884 149.11009697 98 149 C97.86013672 148.44352783 97.72027344 147.88705566 97.57617188 147.3137207 C87.63537955 108.23378112 70.95426746 73.36233427 43 44 C42.28457031 43.22011719 41.56914062 42.44023438 40.83203125 41.63671875 C30.59573302 30.82426865 18.00053124 23.04195442 5 16 C3.20751442 15.00146863 1.41572436 14.00168644 -0.375 13 C-1.5828205 12.33240467 -2.79092098 11.66531332 -4 11 C-3.27758802 6.88295306 -1.97646289 3.69512628 0 0 Z " fill="#626365" transform="translate(381,0)"/>
<path d="M0 0 C23.03175598 3.34763895 45.76976686 24.42694896 59.23046875 42.1171875 C62.01423119 45.96247518 64.55858803 49.93029126 67 54 C67.36915527 54.61020996 67.73831055 55.22041992 68.11865234 55.84912109 C79.06259112 74.27034655 86.02734026 95.60148578 87 117 C81.06 117.495 81.06 117.495 75 118 C74.72027344 116.48792969 74.44054687 114.97585937 74.15234375 113.41796875 C69.38227164 88.57011866 61.36537313 65.67178977 45 46 C44.23042969 45.06671875 43.46085937 44.1334375 42.66796875 43.171875 C30.34896296 28.92242727 14.31854483 19.11297377 -3 12 C-2.49202991 7.6822542 -1.80317221 3.96697886 0 0 Z " fill="#626365" transform="translate(349,43)"/>
<path d="M0 0 C1.94084438 2.91126657 2.8756682 5.53343166 3.90161133 8.85058594 C10.05109666 28.71655744 20.25517954 46.38321705 34 62 C34.5259375 62.60972656 35.051875 63.21945312 35.59375 63.84765625 C50.13356187 79.53730019 72.31573791 90.53868857 93 95 C92.01 98.96 91.02 102.92 90 107 C84.31375174 106.44725855 79.30551202 105.37298723 73.9375 103.4375 C73.20362061 103.17356445 72.46974121 102.90962891 71.71362305 102.63769531 C64.07048341 99.79136412 56.96504051 96.23245475 50 92 C49.43249023 91.65549805 48.86498047 91.31099609 48.28027344 90.95605469 C18.56616249 72.40828399 0.19021173 41.63544638 -10.53198242 9.0703125 C-11 7 -11 7 -11 2 C-5.555 1.01 -5.555 1.01 0 0 Z " fill="#626365" transform="translate(64,399)"/>
<path d="M0 0 C1.40577639 4.21732916 -0.39633059 6.858199 -2.0625 10.75 C-8.46560349 26.47743108 -12.72952733 43.04718649 -14 60 C-14.08467529 61.06557129 -14.16935059 62.13114258 -14.2565918 63.22900391 C-14.95047893 72.61775938 -15.20197347 81.96403025 -15.1875 91.375 C-15.18689575 92.11089355 -15.1862915 92.84678711 -15.18566895 93.60498047 C-15.12289825 122.02632673 -11.3075953 149.64947432 -5.57495117 177.46264648 C-3.44895576 187.99412826 -3.44895576 187.99412826 -4 193 C-5.70356578 195.37040498 -7.52699329 196.33450568 -10 198 C-10.33 198 -10.66 198 -11 198 C-11.02505615 197.23445801 -11.0501123 196.46891602 -11.07592773 195.68017578 C-11.19303454 192.16166069 -11.31523405 188.64333945 -11.4375 185.125 C-11.47681641 183.92101562 -11.51613281 182.71703125 -11.55664062 181.4765625 C-11.79903523 174.61493058 -12.19747447 167.81999001 -13 161 C-13.33 161 -13.66 161 -14 161 C-14.08564209 160.40461426 -14.17128418 159.80922852 -14.25952148 159.19580078 C-14.64861253 156.50500371 -15.04299001 153.81500768 -15.4375 151.125 C-15.57220703 150.18785156 -15.70691406 149.25070312 -15.84570312 148.28515625 C-15.97783203 147.38925781 -16.10996094 146.49335938 -16.24609375 145.5703125 C-16.42676392 144.32918701 -16.42676392 144.32918701 -16.61108398 143.06298828 C-16.91256672 140.94672233 -16.91256672 140.94672233 -18 139 C-18.3548954 137.00371336 -18.68578929 135.00309329 -19 133 C-19.32635698 131.33195323 -19.65725594 129.66475686 -20 128 C-19.34 128 -18.68 128 -18 128 C-18.21946289 127.24315918 -18.43892578 126.48631836 -18.66503906 125.70654297 C-21.53855953 114.42525337 -21.16610361 103.67431706 -20.75 92.125 C-20.69515378 90.18493658 -20.64175942 88.24483155 -20.58984375 86.3046875 C-20.53514357 84.43485767 -20.47919823 82.56506376 -20.421875 80.6953125 C-20.38268951 79.4122673 -20.38268951 79.4122673 -20.3427124 78.103302 C-19.85594446 64.71188891 -19.85594446 64.71188891 -18 61 C-18.43124447 57.53656787 -19.03389538 54.11527123 -19.625 50.67578125 C-20.01302836 46.87229495 -19.66787519 43.75002893 -19 40 C-18.9175 38.9275 -18.835 37.855 -18.75 36.75 C-18 34 -18 34 -15.4375 32.125 C-14.2309375 31.568125 -14.2309375 31.568125 -13 31 C-13.20625 30.236875 -13.4125 29.47375 -13.625 28.6875 C-14 26 -14 26 -12 23 C-11.29359063 19.82115785 -10.984428 17.19075703 -11.25 13.9375 C-10.89744565 9.79498642 -9.11804735 8.63301776 -6 6 C-5.0925 5.278125 -4.185 4.55625 -3.25 3.8125 C-0.92512612 2.19690923 -0.92512612 2.19690923 0 0 Z " fill="#C5872B" transform="translate(626,197)"/>
<path d="M0 0 C-9.23810906 30.51416405 -32.31617104 57.58650209 -57 77 C-57.89203125 77.70898438 -58.7840625 78.41796875 -59.703125 79.1484375 C-75.8408689 91.63490415 -93.49448971 101.46997341 -112 110 C-112.8470752 110.40009277 -113.69415039 110.80018555 -114.56689453 111.21240234 C-117.22521891 112.07290349 -118.41919277 111.95585453 -121 111 C-110.00283286 99.57790368 -110.00283286 99.57790368 -105.23828125 98.203125 C-102.875 98.25 -102.875 98.25 -99 99 C-94.28656461 99 -91.77622394 97.68801667 -88.25 94.5625 C-85.83198326 92.14314326 -85.83198326 92.14314326 -85 89 C-82.96268523 87.67632091 -80.86932223 86.43796089 -78.75 85.25 C-74.8259311 82.98232466 -71.47846025 80.9652702 -69 77.0625 C-67 74 -67 74 -64.5 73.1875 C-63.2625 73.0946875 -63.2625 73.0946875 -62 73 C-53.47711909 70.7571366 -48.04697845 61.7192857 -42.91796875 55.16015625 C-42.28503906 54.44730469 -41.65210938 53.73445312 -41 53 C-40.34 53 -39.68 53 -39 53 C-38.773125 52.2575 -38.54625 51.515 -38.3125 50.75 C-37 48 -37 48 -34.703125 46.19921875 C-31.70007635 43.75598697 -29.70699148 41.19242477 -27.4375 38.0625 C-23.07992174 32.0887662 -23.07992174 32.0887662 -21.05859375 29.84375 C-17.20847923 24.52518573 -14.8700003 18.27743713 -12.2421875 12.28320312 C-6.61798131 0 -6.61798131 0 0 0 Z " fill="#BC7E2A" transform="translate(608,509)"/>
<path d="M0 0 C0.66 0 1.32 0 2 0 C1.97679687 1.07378906 1.95359375 2.14757812 1.9296875 3.25390625 C1.91091376 4.69009715 1.8927153 6.12629565 1.875 7.5625 C1.85824219 8.26697266 1.84148438 8.97144531 1.82421875 9.69726562 C1.78003771 14.49090799 2.55294208 18.38784163 4 23 C5.68881835 32.47262019 5.68881835 32.47262019 3.5625 37.1875 C3.046875 37.785625 2.53125 38.38375 2 39 C2.66 39 3.32 39 4 39 C3.5359375 40.299375 3.5359375 40.299375 3.0625 41.625 C1.91089932 44.86147995 1.91089932 44.86147995 1.75 47.8125 C-0.20682673 56.12901361 -7.10179236 62.60027007 -13 68.4375 C-14.02867187 69.49614258 -14.02867187 69.49614258 -15.078125 70.57617188 C-19.2273854 74.72147306 -22.79436356 78 -29 78 C-29.495 79.485 -29.495 79.485 -30 81 C-34.62459244 82.17700048 -39.07866462 82.11408412 -43.8125 82.0625 C-44.99489258 82.05573242 -44.99489258 82.05573242 -46.20117188 82.04882812 C-48.13414761 82.03711312 -50.06708393 82.01917998 -52 82 C-52 80.33333333 -52 78.66666667 -52 77 C-52.99 77 -53.98 77 -55 77 C-55 76.34 -55 75.68 -55 75 C-55.969375 74.731875 -56.93875 74.46375 -57.9375 74.1875 C-58.948125 73.795625 -59.95875 73.40375 -61 73 C-61.33 72.01 -61.66 71.02 -62 70 C-56 72 -56 72 -53.17578125 73.046875 C-43.98997693 75.80374616 -34.39271911 74.43344202 -26 70 C-13.42580872 61.89871756 -5.80823994 53.64037282 -2.24609375 38.875 C-0.9304443 31.66192886 -0.66024432 24.86527238 -1.30078125 17.578125 C-2.33476814 5.76825069 -2.33476814 5.76825069 0 0 Z " fill="#CF9333" transform="translate(528,201)"/>
<path d="M0 0 C0.66 0 1.32 0 2 0 C2.91456854 4.68968389 3.17404336 9.25599867 3.203125 14.01953125 C3.21018463 14.78672485 3.21724426 15.55391846 3.22451782 16.34436035 C3.42708222 44.92788778 2.67792887 75.34720719 -9 102 C-11.6875 103.5 -11.6875 103.5 -14 104 C-13.02910257 98.4812146 -11.67142333 93.81217403 -8.90234375 88.921875 C-6.85469725 84.56065389 -6.86010275 80.01163518 -6.7890625 75.265625 C-6.76070312 73.96882813 -6.73234375 72.67203125 -6.703125 71.3359375 C-6.66207014 69.29785704 -6.62513005 67.26000423 -6.59863281 65.22167969 C-6.49710547 58.01323813 -6.33133924 51.52428616 -3.68164062 44.76660156 C-2.84375412 42.59505902 -2.57248836 40.56657437 -2.4375 38.25 C-2.28268181 35.71661151 -2.00949805 34.02173592 -0.984375 31.67578125 C2.02038763 23.5080733 0.05184259 12.80759704 -0.87890625 4.29296875 C-1 2 -1 2 0 0 Z " fill="#C0832D" transform="translate(621,397)"/>
<path d="M0 0 C-0.556875 0.4125 -1.11375 0.825 -1.6875 1.25 C-6.57469505 4.94841787 -10.92807 8.78715306 -15.078125 13.30078125 C-17 15 -17 15 -19.33984375 15.87109375 C-23.06668642 17.45267603 -25.47092456 19.91878267 -28.3125 22.75 C-28.86228516 23.26304687 -29.41207031 23.77609375 -29.97851562 24.3046875 C-32.65734126 26.95356353 -33.96995355 28.33979019 -34.14453125 32.17578125 C-34.09683594 33.10777344 -34.04914062 34.03976563 -34 35 C-35.4609375 36.87109375 -35.4609375 36.87109375 -37.375 38.4375 C-40.9681405 41.68500775 -41.81915481 44.27661925 -43 49 C-45.125 50.9375 -45.125 50.9375 -47 52 C-46.51962205 46.00194756 -45.26158588 41.51355642 -42.5 36.1875 C-42.14397705 35.49317871 -41.7879541 34.79885742 -41.42114258 34.08349609 C-34.27211361 20.61422077 -23.39599357 9.56852878 -10 2.3125 C-9.35272949 1.96098877 -8.70545898 1.60947754 -8.03857422 1.24731445 C-3.38964463 -1.12988154 -3.38964463 -1.12988154 0 0 Z " fill="#CD9233" transform="translate(576,143)"/>
<path d="M0 0 C2 0 2 0 3.515625 1.50390625 C4.08796875 2.18324219 4.6603125 2.86257813 5.25 3.5625 C5.86746094 4.28695313 6.48492187 5.01140625 7.12109375 5.7578125 C7.74113281 6.49773437 8.36117188 7.23765625 9 8 C10.10195868 9.31435434 11.20593444 10.62702187 12.3125 11.9375 C12.78300781 12.50339844 13.25351562 13.06929688 13.73828125 13.65234375 C15.8881318 15.94862375 17.17914874 16.01658785 20.375 16.3125 C23.96096682 16.29955092 23.96096682 16.29955092 26.3125 14.4375 C28.40096786 11.4208242 29.17958558 8.55512913 30 5 C30.66 5 31.32 5 32 5 C32.33 4.34 32.66 3.68 33 3 C34.5234375 4.23046875 34.5234375 4.23046875 36 6 C36.20068471 10.05228744 35.01926149 13.74091227 32.47265625 16.88671875 C29.19468506 19.84908658 26.50136682 21.63502431 22 22 C20.66457061 22.32483418 19.33038449 22.6550855 18 23 C18 22.34 18 21.68 18 21 C16.02 20.67 14.04 20.34 12 20 C12.66 19.34 13.32 18.68 14 18 C13.38511719 17.82984375 12.77023437 17.6596875 12.13671875 17.484375 C5.54196682 15.50700121 5.54196682 15.50700121 3.0625 13.1875 C0.91109794 8.75814281 -0.29128892 4.95191167 0 0 Z " fill="#D7A74C" transform="translate(276,338)"/>
<path d="M0 0 C0 6.42031002 -2.72871641 10.35240364 -7.0625 14.8125 C-7.55129639 15.32731934 -8.04009277 15.84213867 -8.54370117 16.37255859 C-9.54218828 17.41985918 -10.54518543 18.4628792 -11.55273438 19.50146484 C-12.8908371 20.88697 -14.20441172 22.29605174 -15.515625 23.70703125 C-16.27359375 24.50496094 -17.0315625 25.30289062 -17.8125 26.125 C-18.47894531 26.82882812 -19.14539063 27.53265625 -19.83203125 28.2578125 C-22.8534736 30.68585446 -26.09264856 32 -30 32 C-30.33 32.99 -30.66 33.98 -31 35 C-35.62459244 36.17700048 -40.07866462 36.11408412 -44.8125 36.0625 C-45.60076172 36.05798828 -46.38902344 36.05347656 -47.20117188 36.04882812 C-49.13414761 36.03711312 -51.06708393 36.01917998 -53 36 C-53 33 -53 33 -52 31 C-51.01 31.33 -50.02 31.66 -49 32 C-38.72686623 32.73379527 -28.64275302 29.54135695 -20 24 C-17.98821419 22.20802041 -16.16196787 20.3701032 -14.375 18.35546875 C-13 17 -13 17 -11 17 C-10.7525 16.443125 -10.505 15.88625 -10.25 15.3125 C-9 13 -9 13 -7.125 10.6875 C-4.68440193 7.60086127 -2.91522891 4.43420356 -1 1 C-0.67 0.67 -0.34 0.34 0 0 Z " fill="#D9992E" transform="translate(529,247)"/>
<path d="M0 0 C3.34008987 0.24741406 4.2550951 1.2550951 6.6875 3.6875 C9.04857069 6.78410673 10.16005389 8.99865279 10 13 C8.16249343 17.71718104 5.5796145 21.05126454 1.125 23.5 C-2.73289621 25.17224399 -5.83930966 25.34672419 -10 25 C-10 21 -10 21 -8 19 C-5.94140625 18.5078125 -5.94140625 18.5078125 -3.5625 18.125 C-0.66575141 17.51393065 0.7785408 17.17586466 3.125 15.3125 C4.42262584 11.88306027 3.87910509 9.51642037 3 6 C1.53228729 3.73545927 1.53228729 3.73545927 0 2 C0 1.34 0 0.68 0 0 Z " fill="#DEAB41" transform="translate(357,257)"/>
<path d="M0 0 C1.12803498 3.38410493 0.93012259 3.84403278 -0.36328125 6.984375 C-0.67330078 7.75523437 -0.98332031 8.52609375 -1.30273438 9.3203125 C-1.63595703 10.12210938 -1.96917969 10.92390625 -2.3125 11.75 C-4.50898459 17.12016273 -6.52112243 22.38476944 -8 28 C-8.61875 27.814375 -9.2375 27.62875 -9.875 27.4375 C-12.04160178 26.76313824 -12.04160178 26.76313824 -14 28 C-13.7834375 27.35933594 -13.566875 26.71867187 -13.34375 26.05859375 C-12.00188332 21.89010975 -10.980084 18.607438 -11.125 14.1875 C-11 11 -11 11 -8.8125 8.3125 C-6.97031233 6.79781236 -5.11645577 5.29718073 -3.25 3.8125 C-0.92512612 2.19690923 -0.92512612 2.19690923 0 0 Z " fill="#C28126" transform="translate(626,197)"/>
<path d="M0 0 C4.29 0.33 8.58 0.66 13 1 C13.22786458 3.96223958 13.45572917 6.92447917 13.68359375 9.88671875 C13.96451681 12.65086297 14.40156852 15.28945741 15 18 C9.33870569 13.30233025 4.14771096 8.25276628 -1 3 C-0.67 2.01 -0.34 1.02 0 0 Z " fill="#D29E43" transform="translate(240,407)"/>
<path d="M0 0 C2 0 2 0 3.515625 1.50390625 C4.08796875 2.18324219 4.6603125 2.86257813 5.25 3.5625 C5.86875 4.28824219 6.4875 5.01398438 7.125 5.76171875 C8.31333346 7.18029182 9.50092517 8.59948684 10.6875 10.01953125 C11.4609375 10.93798828 11.4609375 10.93798828 12.25 11.875 C12.93835938 12.70644531 12.93835938 12.70644531 13.640625 13.5546875 C16.4581441 16.55032563 19.07391362 17.36333734 23 18 C23 18.33 23 18.66 23 19 C16.33381229 19.49379168 10.85039731 18.36683611 5 15 C1.12695934 10.59001507 -0.3439995 5.84799142 0 0 Z " fill="#D09A3D" transform="translate(276,338)"/>
<path d="M0 0 C-0.556875 0.4125 -1.11375 0.825 -1.6875 1.25 C-6.57469505 4.94841787 -10.92807 8.78715306 -15.078125 13.30078125 C-17 15 -17 15 -19.33984375 15.84765625 C-23.13396602 17.49121876 -25.48658846 20.16517528 -28.3125 23.125 C-28.86228516 23.68832031 -29.41207031 24.25164062 -29.97851562 24.83203125 C-31.32595438 26.21462058 -32.66394273 27.60640916 -34 29 C-34.33 28.01 -34.66 27.02 -35 26 C-34.21496094 25.31035156 -33.42992187 24.62070313 -32.62109375 23.91015625 C-25.51038307 17.61732916 -25.51038307 17.61732916 -19.5625 10.25 C-15.73930965 4.99429913 -6.66170273 -2.22056758 0 0 Z " fill="#CC8E2C" transform="translate(576,143)"/>
<path d="M0 0 C0.70125 0.639375 1.4025 1.27875 2.125 1.9375 C5.22841233 4.16386102 7.24620139 4.65080943 11 5 C11.07541016 6.54494141 11.07541016 6.54494141 11.15234375 8.12109375 C12.16529095 12.75637747 14.18969486 14.96068283 17.5625 18.0625 C18.10463135 18.58054199 18.6467627 19.09858398 19.20532227 19.63232422 C27.20747574 27.20969476 27.20747574 27.20969476 37 32 C37 33.65 37 35.3 37 37 C34.10316802 35.67980962 31.94908923 34.23197726 29.63671875 32.05078125 C29.0039502 31.45700684 28.37118164 30.86323242 27.71923828 30.25146484 C27.04876465 29.61160645 26.37829102 28.97174805 25.6875 28.3125 C24.99124512 27.6520166 24.29499023 26.9915332 23.57763672 26.31103516 C21.37757109 24.21505012 19.18748779 22.10910403 17 20 C16.28054199 19.30922363 15.56108398 18.61844727 14.81982422 17.90673828 C12.74457044 15.90643081 10.68244727 13.89360372 8.625 11.875 C7.98908936 11.26052002 7.35317871 10.64604004 6.69799805 10.01293945 C3.54433691 6.88258442 1.24338383 4.39328954 0 0 Z " fill="#D3A251" transform="translate(139,427)"/>
<path d="M0 0 C0.66 1.32 1.32 2.64 2 4 C3.32 3.67 4.64 3.34 6 3 C6.45023626 7.5023626 6.36957182 9.46617404 3.75 13.25 C-1.92682927 18.92682927 -1.92682927 18.92682927 -5.75 19.1875 C-6.86375 19.0946875 -6.86375 19.0946875 -8 19 C-8.433125 17.824375 -8.433125 17.824375 -8.875 16.625 C-9.84912254 13.90328368 -9.84912254 13.90328368 -12 12 C-9.24246258 11.04546782 -7.86563982 11.02742044 -4.9375 11.625 C-2.06240966 12.32543464 -2.06240966 12.32543464 -0.296875 10.81640625 C1.42612111 8.40317375 1.14754359 7.19822797 0.6875 4.3125 C0.56761719 3.50425781 0.44773437 2.69601562 0.32421875 1.86328125 C0.21722656 1.24839844 0.11023438 0.63351562 0 0 Z " fill="#D49E3E" transform="translate(256,426)"/>
<path d="M0 0 C4.02043212 1.646924 6.93066034 4.45451148 10.0625 7.375 C10.59166016 7.85710937 11.12082031 8.33921875 11.66601562 8.8359375 C14.41910941 11.37831771 16.88013607 13.90455855 19 17 C16.25 17.3125 16.25 17.3125 13 17 C11.63360658 15.3603279 10.3050581 13.68889872 9 12 C7.62532645 11.34912313 6.22658818 10.74760953 4.8125 10.1875 C2.70703125 9.24609375 2.70703125 9.24609375 1 8 C-0.03172191 5.16685888 0 3.07151741 0 0 Z " fill="#CE983D" transform="translate(195,390)"/>
<path d="M0 0 C0.33 0.66 0.66 1.32 1 2 C3.52733235 2.65555119 3.52733235 2.65555119 6 3 C6.11021484 3.94552734 6.11021484 3.94552734 6.22265625 4.91015625 C6.47917969 5.59980469 6.73570312 6.28945313 7 7 C9.02534447 7.95613229 9.02534447 7.95613229 11.4375 8.4375 C15.8186342 9.71706935 15.8186342 9.71706935 17.5625 12.4375 C18 15 18 15 18 19 C19.32 19.33 20.64 19.66 22 20 C22 20.66 22 21.32 22 22 C17.91620659 20.64827153 15.62316481 18.93063758 12.6875 15.8125 C9.13364633 12.10361245 5.46360415 8.78705591 1.43359375 5.60546875 C0 4 0 4 0 0 Z " fill="#CE9539" transform="translate(195,480)"/>
<path d="M0 0 C5.41793777 1.76082977 5.41793777 1.76082977 7.86328125 2.765625 C12.89295845 4.82184574 17.58672124 5.6366086 23 6 C22.67 6.99 22.34 7.98 22 9 C16.47322267 9.19392201 12.24385089 8.7479503 7 7 C7 6.34 7 5.68 7 5 C5.5459375 4.5978125 5.5459375 4.5978125 4.0625 4.1875 C3.051875 3.795625 2.04125 3.40375 1 3 C0.67 2.01 0.34 1.02 0 0 Z " fill="#CA8625" transform="translate(466,271)"/>
<path d="M0 0 C3.3 0 6.6 0 10 0 C10 3.3 10 6.6 10 10 C5.87926399 8.969816 5.27622669 8.63097231 2.75 5.5625 C1.96882813 4.63630859 1.96882813 4.63630859 1.171875 3.69140625 C0 2 0 2 0 0 Z " fill="#D29E40" transform="translate(275,307)"/>
<path d="M0 0 C4.35877078 0.50293509 6.98059086 2.98059086 10 6 C10.375 8.8125 10.375 8.8125 10 11 C6.46992539 10.34628248 3.80150218 9.27148825 1 7 C0.1875 3.3125 0.1875 3.3125 0 0 Z " fill="#CF993D" transform="translate(169,72)"/>
<path d="M0 0 C0.66 0 1.32 0 2 0 C2 0.66 2 1.32 2 2 C5.3 2.33 8.6 2.66 12 3 C12 5.97 12 8.94 12 12 C7.71844486 10.92961122 7.02624883 10.33911466 4.3125 7.125 C3.40951172 6.07699219 3.40951172 6.07699219 2.48828125 5.0078125 C1 3 1 3 0 0 Z " fill="#D09739" transform="translate(118,405)"/>
<path d="M0 0 C0.66 0.33 1.32 0.66 2 1 C-0.05819533 3.25407044 -2.12131395 5.50327342 -4.1875 7.75 C-5.0547168 8.70132813 -5.0547168 8.70132813 -5.93945312 9.671875 C-9.10488056 13.105559 -12.27049985 16.16347876 -16 19 C-17.35147138 20.31494512 -18.69112542 21.64264858 -20 23 C-18.50298675 18.10732256 -15.69541201 15.12188433 -12.25 11.5 C-11.73695313 10.94441406 -11.22390625 10.38882813 -10.6953125 9.81640625 C-7.34221844 6.23584098 -3.82569411 3.06971863 0 0 Z " fill="#CE953B" transform="translate(558,150)"/>
<path d="M0 0 C2.24973447 -0.054138 4.49984383 -0.09285491 6.75 -0.125 C8.00296875 -0.14820313 9.2559375 -0.17140625 10.546875 -0.1953125 C13.73165019 -0.01517816 15.42659367 0.18347788 18 2 C18.75 4.125 18.75 4.125 19 6 C16.69 5.34 14.38 4.68 12 4 C12 3.34 12 2.68 12 2 C11.34 2 10.68 2 10 2 C10 2.66 10 3.32 10 4 C7.36 4 4.72 4 2 4 C1.34 2.68 0.68 1.36 0 0 Z " fill="#D4A146" transform="translate(139,64)"/>
<path d="M0 0 C0.66 0.33 1.32 0.66 2 1 C1.01 2.485 1.01 2.485 0 4 C1.98 2.68 3.96 1.36 6 0 C6.66 0.66 7.32 1.32 8 2 C9.65 1.34 11.3 0.68 13 0 C12.67 0.99 12.34 1.98 12 3 C9.23351438 4.05375794 6.59338527 4.90968139 3.75 5.6875 C2.60337891 6.02491211 2.60337891 6.02491211 1.43359375 6.36914062 C-2.46152915 7.47578608 -5.909863 8.30267014 -10 8 C-8 6 -8 6 -6.125 5.125 C-3.59843593 3.78740726 -1.94073664 2.07936068 0 0 Z " fill="#C18633" transform="translate(468,622)"/>
<path d="M0 0 C1.32192423 2.64384846 0.77274999 4.36309867 -0.07421875 7.1171875 C-1.81636735 10.66029141 -4.71864837 12.90476465 -8 15 C-10.6875 15.8125 -10.6875 15.8125 -13 16 C-14.33542939 16.32483418 -15.66961551 16.6550855 -17 17 C-17 16.34 -17 15.68 -17 15 C-19.97 14.505 -19.97 14.505 -23 14 C-23 13.67 -23 13.34 -23 13 C-21.89140625 12.99742187 -20.7828125 12.99484375 -19.640625 12.9921875 C-18.17704318 12.95465976 -16.71350226 12.91551217 -15.25 12.875 C-14.52039063 12.87757813 -13.79078125 12.88015625 -13.0390625 12.8828125 C-10.57978402 12.85319703 -10.57978402 12.85319703 -7 12 C-4.49294629 9.26060017 -4.49294629 9.26060017 -3 6 C-2.13375 4.329375 -2.13375 4.329375 -1.25 2.625 C-0.8375 1.75875 -0.425 0.8925 0 0 Z " fill="#E2B144" transform="translate(311,344)"/>
<path d="M0 0 C-3.63 3.3 -7.26 6.6 -11 10 C-11.66 9.34 -12.32 8.68 -13 8 C-14.32 8.99 -15.64 9.98 -17 11 C-15.53072232 7.38270223 -13.60198385 5.6339522 -10.5 3.3125 C-9.7059375 2.71050781 -8.911875 2.10851562 -8.09375 1.48828125 C-4.43883495 -1.10970874 -4.43883495 -1.10970874 0 0 Z " fill="#D4A045" transform="translate(134,68)"/>
<path d="M0 0 C0.99 0.33 1.98 0.66 3 1 C2.64989059 9.35010941 2.64989059 9.35010941 -0.0625 12.0625 C-0.701875 12.371875 -1.34125 12.68125 -2 13 C-1.67 11.783125 -1.34 10.56625 -1 9.3125 C-0.19677787 6.12789396 0.20641973 3.3027157 0 0 Z M-5 16 C-5.66 17.32 -6.32 18.64 -7 20 C-10.63 20 -14.26 20 -18 20 C-18 19.67 -18 19.34 -18 19 C-17.37351562 18.86722656 -16.74703125 18.73445313 -16.1015625 18.59765625 C-15.28429687 18.42105469 -14.46703125 18.24445313 -13.625 18.0625 C-12.81289063 17.88847656 -12.00078125 17.71445312 -11.1640625 17.53515625 C-8.88723554 16.9721142 -7.3530537 16 -5 16 Z " fill="#E8B949" transform="translate(366,263)"/>
<path d="M0 0 C2.97 0.33 5.94 0.66 9 1 C9.33 4.3 9.66 7.6 10 11 C6.45613391 9.22806695 5.15873794 8.37102098 2.75 5.5 C2.22921875 4.8915625 1.7084375 4.283125 1.171875 3.65625 C0 2 0 2 0 0 Z " fill="#D09B40" transform="translate(211,232)"/>
<path d="M0 0 C2.53910197 0.38520564 3.72751123 0.70097943 5.484375 2.62890625 C5.90203125 3.26699219 6.3196875 3.90507812 6.75 4.5625 C7.17796875 5.20316406 7.6059375 5.84382812 8.046875 6.50390625 C8.36140625 6.99761719 8.6759375 7.49132812 9 8 C8.34 8.66 7.68 9.32 7 10 C4.36 9.01 1.72 8.02 -1 7 C-0.67 4.69 -0.34 2.38 0 0 Z " fill="#CE983C" transform="translate(171,225)"/>
<path d="M0 0 C7.09821429 6.02678571 7.09821429 6.02678571 10 9 C9.67 9.66 9.34 10.32 9 11 C8.34 10.34 7.68 9.68 7 9 C6.67 9.66 6.34 10.32 6 11 C4.35 11 2.7 11 1 11 C0.67 7.37 0.34 3.74 0 0 Z " fill="#D19C41" transform="translate(238,296)"/>
<path d="M0 0 C3.72827405 1.86413703 5.15133841 3.00296467 7.75 6.0625 C8.67039063 7.13177734 8.67039063 7.13177734 9.609375 8.22265625 C11 10 11 10 11 11 C7.65747276 11.07427838 5.1964086 11.06546953 2 10 C1.34 6.7 0.68 3.4 0 0 Z " fill="#CF9940" transform="translate(192,247)"/>
<path d="M0 0 C2.55390984 0.36484426 4.0891745 1.05944967 6.25 2.5 C8.51567699 5.73668141 8.44011139 8.01394863 8.43359375 11.87890625 C7.90980116 14.44124297 6.98193582 15.35452013 5 17 C4.96132813 16.12988281 4.96132813 16.12988281 4.921875 15.2421875 C4.51016897 9.5718727 3.41321793 6.51425597 0 2 C0 1.34 0 0.68 0 0 Z " fill="#D19F4A" transform="translate(357,257)"/>
<path d="M0 0 C-1.75 3.875 -1.75 3.875 -4 5 C-5.54023996 5.06950541 -7.08334988 5.08452357 -8.625 5.0625 C-9.85089844 5.04896484 -9.85089844 5.04896484 -11.1015625 5.03515625 C-12.04128906 5.01775391 -12.04128906 5.01775391 -13 5 C-9.78991597 0.18487395 -9.78991597 0.18487395 -6.0625 -0.6875 C-3 -1 -3 -1 0 0 Z " fill="#BF8027" transform="translate(457,627)"/>
<path d="M0 0 C0 4.1989399 -2.20981027 6.12324114 -5 9 C-7.04149288 10.87364547 -9.11813381 12.69111169 -11.23046875 14.484375 C-13.08344907 16.03207632 -13.08344907 16.03207632 -15 18 C-15.99 17.67 -16.98 17.34 -18 17 C-14.29739947 12.5077959 -11.11014993 8.88264868 -6 6 C-3.90396196 4.07863179 -1.96631105 2.05776738 0 0 Z M-20 18 C-18 19 -18 19 -18 19 Z " fill="#CE8C28" transform="translate(523,255)"/>
<path d="M0 0 C0.66 0 1.32 0 2 0 C2 9.24 2 18.48 2 28 C1.67 28 1.34 28 1 28 C0.636565 23.70906486 0.2858188 19.41718655 -0.0625 15.125 C-0.16626953 13.90167969 -0.27003906 12.67835938 -0.37695312 11.41796875 C-0.47041016 10.25136719 -0.56386719 9.08476562 -0.66015625 7.8828125 C-0.74918213 6.80402832 -0.83820801 5.72524414 -0.92993164 4.61376953 C-1 2 -1 2 0 0 Z " fill="#B97921" transform="translate(621,397)"/>
<path d="M0 0 C1 7.625 1 7.625 1 11 C-0.33927721 9.54712339 -1.67126847 8.08752741 -3 6.625 C-3.7425 5.81289063 -4.485 5.00078125 -5.25 4.1640625 C-7 2 -7 2 -7 0 C-3.98968256 -0.93423645 -3.13349732 -1.04449911 0 0 Z " fill="#D29F44" transform="translate(174,333)"/>
<path d="M0 0 C2.31 0.33 4.62 0.66 7 1 C7.33 3.64 7.66 6.28 8 9 C4.63704165 7.55873214 2.37072898 5.79407345 0 3 C0 2.01 0 1.02 0 0 Z " fill="#CF993E" transform="translate(233,257)"/>
<path d="M0 0 C0.33 0 0.66 0 1 0 C1.45023626 4.5023626 1.36957182 6.46617404 -1.25 10.25 C-6.92682927 15.92682927 -6.92682927 15.92682927 -10.75 16.1875 C-11.86375 16.0946875 -11.86375 16.0946875 -13 16 C-13 15.34 -13 14.68 -13 14 C-11.27473958 13.28385417 -9.54947917 12.56770833 -7.82421875 11.8515625 C-5.08061016 10.57082016 -3.29185299 9.66537678 -2.05078125 6.8359375 C-1.80714844 6.02382813 -1.56351562 5.21171875 -1.3125 4.375 C-1.06113281 3.55773437 -0.80976563 2.74046875 -0.55078125 1.8984375 C-0.36902344 1.27195312 -0.18726563 0.64546875 0 0 Z " fill="#DFAC41" transform="translate(261,429)"/>
<path d="M0 0 C7.09821429 6.02678571 7.09821429 6.02678571 10 9 C9.67 9.66 9.34 10.32 9 11 C7.68 9.68 6.36 8.36 5 7 C4.67 7.99 4.34 8.98 4 10 C3.01 10 2.02 10 1 10 C0.67 6.7 0.34 3.4 0 0 Z " fill="#D19E45" transform="translate(216,272)"/>
<path d="M0 0 C2.97 0 5.94 0 9 0 C9 2.31 9 4.62 9 7 C4.58110387 5.64978174 2.65654657 3.73884332 0 0 Z " fill="#CA8D31" transform="translate(309,583)"/>
<path d="M0 0 C0.66 0 1.32 0 2 0 C1.34 6.93 0.68 13.86 0 21 C-0.33 21 -0.66 21 -1 21 C-2.51708428 6.21867882 -2.51708428 6.21867882 0 0 Z " fill="#CC9238" transform="translate(528,201)"/>
<path d="M0 0 C0.66 0.33 1.32 0.66 2 1 C1.39671875 1.53367187 0.7934375 2.06734375 0.171875 2.6171875 C-5.51823262 7.92183622 -8.77131778 12.53469381 -11 20 C-11.33 20 -11.66 20 -12 20 C-11.74974339 12.99281498 -9.7442384 9.13013339 -5 4 C-2.125 1.5 -2.125 1.5 0 0 Z " fill="#CF9B44" transform="translate(106,342)"/>
<path d="M0 0 C0.08121924 1.60332791 0.13929134 3.20784026 0.1875 4.8125 C0.22230469 5.70582031 0.25710938 6.59914063 0.29296875 7.51953125 C-0.04918998 10.41647515 -0.75393573 11.22555028 -3 13 C-3.66 10.69 -4.32 8.38 -5 6 C-4.34 6 -3.68 6 -3 6 C-3 4.35 -3 2.7 -3 1 C-1 0 -1 0 0 0 Z " fill="#C68727" transform="translate(611,319)"/>
<path d="M0 0 C1.98 0.99 1.98 0.99 4 2 C5.09658936 5.28976808 4.79953138 6.71303767 4 10 C2.68 10 1.36 10 0 10 C0 6.7 0 3.4 0 0 Z " fill="#D29D3F" transform="translate(216,123)"/>
<path d="M0 0 C0.99 0 1.98 0 3 0 C3 4.29 3 8.58 3 13 C2.67 13 2.34 13 2 13 C1.67 11.35 1.34 9.7 1 8 C0.34 9.32 -0.32 10.64 -1 12 C-2.36088895 7.91733314 -1.68398693 5.24071899 -1 1 C-0.67 0.67 -0.34 0.34 0 0 Z " fill="#CA9035" transform="translate(608,259)"/>
<path d="M0 0 C1.875 0.3125 1.875 0.3125 4 1 C4.66 1.99 5.32 2.98 6 4 C9.55672179 5.2188121 9.55672179 5.2188121 13 6 C9.1653439 7.41077471 6.21671707 6.60999698 2.3125 5.6875 C0.57419922 5.29111328 0.57419922 5.29111328 -1.19921875 4.88671875 C-2.12347656 4.59410156 -3.04773438 4.30148437 -4 4 C-4.33 3.34 -4.66 2.68 -5 2 C-2.525 2.495 -2.525 2.495 0 3 C0 2.01 0 1.02 0 0 Z " fill="#C78D37" transform="translate(385,625)"/>
<path d="M0 0 C0.886875 0.61875 1.77375 1.2375 2.6875 1.875 C5.46061184 3.65397741 7.9140354 4.91083602 11 6 C11 7.65 11 9.3 11 11 C8.08728356 9.65319085 5.70671723 8.12551255 3.25 6.0625 C2.63640625 5.55847656 2.0228125 5.05445313 1.390625 4.53515625 C0 3 0 3 0 0 Z " fill="#CC9237" transform="translate(165,453)"/>
<path d="M0 0 C0.99 0.33 1.98 0.66 3 1 C2.41992188 1.42410156 1.83984375 1.84820312 1.2421875 2.28515625 C-3.87605086 6.12805799 -8.01441048 9.99246445 -12 15 C-12.33 14.34 -12.66 13.68 -13 13 C-9.27493108 7.50108874 -5.77583142 3.37831649 0 0 Z " fill="#D5A450" transform="translate(89,188)"/>
<path d="M0 0 C1.99954746 -0.04254356 4.00041636 -0.04080783 6 0 C7 1 7 1 7.0625 4.5625 C7.041875 5.696875 7.02125 6.83125 7 8 C3.28631113 6.76210371 2.22645819 5.14775123 0 2 C0 1.34 0 0.68 0 0 Z " fill="#D09B41" transform="translate(190,207)"/>
<path d="M0 0 C0.33 0 0.66 0 1 0 C1.63019694 9.17286652 1.63019694 9.17286652 -1 12.625 C-1.66 13.07875 -2.32 13.5325 -3 14 C-2.88570603 12.22844346 -2.75816963 10.45773771 -2.625 8.6875 C-2.55539062 7.70136719 -2.48578125 6.71523438 -2.4140625 5.69921875 C-2 3 -2 3 0 0 Z " fill="#B87925" transform="translate(618,466)"/>
<path d="M0 0 C1.98 0 3.96 0 6 0 C6 3.63 6 7.26 6 11 C0 3 0 3 0 0 Z " fill="#E1AF43" transform="translate(247,408)"/>
<path d="M0 0 C1 3 1 3 0.22265625 5.04296875 C-0.16019531 5.75066406 -0.54304687 6.45835937 -0.9375 7.1875 C-1.31777344 7.90292969 -1.69804688 8.61835938 -2.08984375 9.35546875 C-2.54037109 10.16951172 -2.54037109 10.16951172 -3 11 C-3.66 11 -4.32 11 -5 11 C-5.36783439 4.50159236 -5.36783439 4.50159236 -3.625 2.125 C-2 1 -2 1 0 0 Z " fill="#CF8F27" transform="translate(612,229)"/>
<path d="M0 0 C0.33 0.99 0.66 1.98 1 3 C-0.4375 5.1875 -0.4375 5.1875 -2 7 C-2.33 6.01 -2.66 5.02 -3 4 C-1.5625 1.8125 -1.5625 1.8125 0 0 Z M-6 6 C-5.34 6.33 -4.68 6.66 -4 7 C-5.2065625 8.36125 -5.2065625 8.36125 -6.4375 9.75 C-8.41142671 12.10309908 -9.63877467 13.86938046 -10 17 C-10.33 17 -10.66 17 -11 17 C-11.3125 14.3125 -11.3125 14.3125 -11 11 C-8.5 8.125 -8.5 8.125 -6 6 Z " fill="#C8882A" transform="translate(626,197)"/>
<path d="M0 0 C1.1725131 0.95117134 2.33787015 1.91117009 3.5 2.875 C4.47453125 3.67550781 4.47453125 3.67550781 5.46875 4.4921875 C5.9740625 4.98976562 6.479375 5.48734375 7 6 C7 6.66 7 7.32 7 8 C4.69 7.67 2.38 7.34 0 7 C0 4.69 0 2.38 0 0 Z " fill="#CE9940" transform="translate(261,175)"/>
<path d="M0 0 C-3.16438356 6.78082192 -3.16438356 6.78082192 -6 9 C-6.66 9 -7.32 9 -8 9 C-6.53206651 1.41567696 -6.53206651 1.41567696 -4 -0.5625 C-2 -1 -2 -1 0 0 Z " fill="#C37F1E" transform="translate(630,186)"/>
<path d="M0 0 C5.45479185 0.56820748 9.91059256 1.94637945 15 4 C15 4.33 15 4.66 15 5 C8.63544353 5.50916452 4.94875005 5.18740389 0 1 C0 0.67 0 0.34 0 0 Z " fill="#C08024" transform="translate(397,628)"/>
<path d="M0 0 C0.66 0.66 1.32 1.32 2 2 C1.53846154 8.46153846 1.53846154 8.46153846 -1 11 C-2.4783226 8.04335481 -2.06032783 5.25770263 -2 2 C-1.34 2 -0.68 2 0 2 C0 1.34 0 0.68 0 0 Z " fill="#D6A13D" transform="translate(308,341)"/>
<path d="M0 0 C1.9375 0.625 1.9375 0.625 4 2 C4.75 5.125 4.75 5.125 5 8 C3.35 7.67 1.7 7.34 0 7 C0 4.69 0 2.38 0 0 Z " fill="#CE983B" transform="translate(239,150)"/>
<path d="M0 0 C1.66611905 -0.042721 3.33382885 -0.04063832 5 0 C6 1 6 1 6.0625 4.5625 C6.041875 5.696875 6.02125 6.83125 6 8 C1.125 3.375 1.125 3.375 0 0 Z " fill="#CE9A41" transform="translate(260,132)"/>
<path d="M0 0 C0.99 0.33 1.98 0.66 3 1 C3.22786458 3.01822917 3.45572917 5.03645833 3.68359375 7.0546875 C3.91292961 9.07404316 3.91292961 9.07404316 5 11 C1.53735609 9.84578536 0.71215478 9.16748634 -1 6 C-0.6875 2.75 -0.6875 2.75 0 0 Z " fill="#D29E43" transform="translate(245,107)"/>
<path d="M0 0 C0.66 1.32 1.32 2.64 2 4 C2.66 4 3.32 4 4 4 C3.64766839 9.4611399 3.64766839 9.4611399 3 12 C0.9375 13.5 0.9375 13.5 -1 14 C-1.33 13.34 -1.66 12.68 -2 12 C-1.49855469 11.60167969 -0.99710938 11.20335937 -0.48046875 10.79296875 C1.22742807 9.09649679 1.22742807 9.09649679 1.07421875 6.73828125 C0.88279297 5.53751953 0.88279297 5.53751953 0.6875 4.3125 C0.56761719 3.50425781 0.44773437 2.69601562 0.32421875 1.86328125 C0.21722656 1.24839844 0.11023438 0.63351562 0 0 Z " fill="#D6A54C" transform="translate(256,426)"/>
<path d="M0 0 C1.65 0 3.3 0 5 0 C6.4606285 2.64738916 7 3.89448334 7 7 C4.13302508 5.71480435 2.02392288 4.42870746 0 2 C0 1.34 0 0.68 0 0 Z " fill="#CD973D" transform="translate(214,382)"/>
<path d="M0 0 C4.29 0 8.58 0 13 0 C10.1709277 2.8290723 9.61855575 3.37611108 6 4 C6 3.34 6 2.68 6 2 C3.03 1.505 3.03 1.505 0 1 C0 0.67 0 0.34 0 0 Z " fill="#DCA940" transform="translate(288,357)"/>
<path d="M0 0 C4.875 0.875 4.875 0.875 6 2 C6.04080783 3.99958364 6.04254356 6.00045254 6 8 C1.125 3.375 1.125 3.375 0 0 Z " fill="#CF9A40" transform="translate(149,157)"/>
<path d="M0 0 C1.22589844 0.01353516 1.22589844 0.01353516 2.4765625 0.02734375 C3.41628906 0.04474609 3.41628906 0.04474609 4.375 0.0625 C4.045 1.0525 3.715 2.0425 3.375 3.0625 C-2.6796875 3.2578125 -2.6796875 3.2578125 -4.625 3.0625 C-5.285 2.4025 -5.945 1.7425 -6.625 1.0625 C-4.21954362 -0.14022819 -2.67503047 -0.03821472 0 0 Z " fill="#D39E3E" transform="translate(353.625,275.9375)"/>
<path d="M0 0 C3.375 0.25 3.375 0.25 7 1 C8.4375 3.0625 8.4375 3.0625 9 5 C5.65626525 4.44271087 2.96687001 3.64826111 0 2 C0 1.34 0 0.68 0 0 Z " fill="#C88F39" transform="translate(354,616)"/>
<path d="M0 0 C1.66611905 -0.042721 3.33382885 -0.04063832 5 0 C6 1 6 1 6.0625 4.0625 C6.041875 5.031875 6.02125 6.00125 6 7 C3.95880212 5.38405168 1.95927063 3.7143618 0 2 C0 1.34 0 0.68 0 0 Z " fill="#CE983D" transform="translate(142,307)"/>
<path d="M0 0 C3.35620271 1.38877354 5.07298728 2.91677965 7 6 C7 6.66 7 7.32 7 8 C5.1875 7.8125 5.1875 7.8125 3 7 C0 2.82142857 0 2.82142857 0 0 Z " fill="#CE9940" transform="translate(340,268)"/>
<path d="M0 0 C6.48292295 -0.3669579 6.48292295 -0.3669579 8.9375 1.375 C10 3 10 3 10 5 C7.69 4.34 5.38 3.68 3 3 C3 2.34 3 1.68 3 1 C2.01 0.67 1.02 0.34 0 0 Z " fill="#CE9635" transform="translate(148,65)"/>
<path d="M0 0 C0.33 0 0.66 0 1 0 C1.35050464 5.841744 1.16727335 9.8531808 -2 15 C-2.66 15 -3.32 15 -4 15 C-3.69255859 14.00419922 -3.69255859 14.00419922 -3.37890625 12.98828125 C-3.10949219 12.10527344 -2.84007812 11.22226563 -2.5625 10.3125 C-2.29566406 9.44238281 -2.02882813 8.57226562 -1.75390625 7.67578125 C-1.03655471 5.12974079 -0.482459 2.5996577 0 0 Z " fill="#D0973F" transform="translate(526,238)"/>
<path d="M0 0 C0.66 0.33 1.32 0.66 2 1 C-1.63 4.3 -5.26 7.6 -9 11 C-9.66 10.67 -10.32 10.34 -11 10 C-5.555 5.05 -5.555 5.05 0 0 Z " fill="#D19E4B" transform="translate(558,150)"/>
<path d="M0 0 C0.33 0 0.66 0 1 0 C1.05386629 2.12472576 1.09273071 4.24983652 1.125 6.375 C1.14820313 7.55835938 1.17140625 8.74171875 1.1953125 9.9609375 C1 13 1 13 -1 15 C-2 14 -2 14 -2.0625 10.9375 C-2.041875 9.968125 -2.02125 8.99875 -2 8 C-1.67 8 -1.34 8 -1 8 C-0.67 5.36 -0.34 2.72 0 0 Z " fill="#CB943E" transform="translate(610,306)"/>
<path d="M0 0 C4 1.33333333 8 2.66666667 12 4 C10.4375 5.1875 10.4375 5.1875 8 6 C4.3125 4.8125 4.3125 4.8125 1 3 C0.67 2.01 0.34 1.02 0 0 Z " fill="#CD9239" transform="translate(466,271)"/>
<path d="M0 0 C1.0326802 2.78823655 1.04509293 3.8677274 0.0625 6.75 C-0.288125 7.4925 -0.63875 8.235 -1 9 C-1.66 8.34 -2.32 7.68 -3 7 C-2.75 3.9375 -2.75 3.9375 -2 1 C-1.34 0.67 -0.68 0.34 0 0 Z " fill="#CF8F27" transform="translate(609,240)"/>
<path d="M0 0 C0.99 0.33 1.98 0.66 3 1 C-3.435 3.97 -3.435 3.97 -10 7 C-8 3 -8 3 -5 1.8125 C-4.01 1.544375 -3.02 1.27625 -2 1 C-1.34 0.67 -0.68 0.34 0 0 Z " fill="#C18839" transform="translate(517,606)"/>
<path d="M0 0 C0.33 0 0.66 0 1 0 C1.08131463 1.43655854 1.13933559 2.8744483 1.1875 4.3125 C1.23970703 5.51326172 1.23970703 5.51326172 1.29296875 6.73828125 C0.93801608 9.47851584 0.10633718 10.29171079 -2 12 C-1.85904936 10.3745692 -1.71207913 8.74965949 -1.5625 7.125 C-1.48128906 6.22007812 -1.40007812 5.31515625 -1.31640625 4.3828125 C-1 2 -1 2 0 0 Z " fill="#D49E39" transform="translate(364,262)"/>
<path d="M0 0 C-4.455 2.97 -4.455 2.97 -9 6 C-8.1875 3.0625 -8.1875 3.0625 -7 0 C-4 -1 -4 -1 0 0 Z " fill="#CA8D2E" transform="translate(585,140)"/>
<path d="M0 0 C1.32 0.33 2.64 0.66 4 1 C0.535 3.97 0.535 3.97 -3 7 C-3.66 6.67 -4.32 6.34 -5 6 C-3.35 4.02 -1.7 2.04 0 0 Z " fill="#D29C3C" transform="translate(95,185)"/>
<path d="M0 0 C0.99 0 1.98 0 3 0 C3 2.31 3 4.62 3 7 C2.01 6.67 1.02 6.34 0 6 C0 4.02 0 2.04 0 0 Z " fill="#CF9637" transform="translate(147,432)"/>
<path d="M0 0 C1.65 0 3.3 0 5 0 C5 1.98 5 3.96 5 6 C3.2925002 4.71937515 1.62626404 3.38232443 0 2 C0 1.34 0 0.68 0 0 Z " fill="#CD963B" transform="translate(191,358)"/>
<path d="M0 0 C3.63 0.33 7.26 0.66 11 1 C7.3558226 3.4294516 5.28758728 3.16179575 1 3 C0.67 2.01 0.34 1.02 0 0 Z " fill="#E3B145" transform="translate(346,279)"/>
<path d="M0 0 C0.36923077 4.55384615 0.36923077 4.55384615 -1.5 6.8125 C-1.995 7.204375 -2.49 7.59625 -3 8 C-5 7 -5 7 -6 5 C-1.125 0 -1.125 0 0 0 Z " fill="#D7A64B" transform="translate(362,270)"/>
<path d="M0 0 C0 1.65 0 3.3 0 5 C-1.98 5.99 -1.98 5.99 -4 7 C-4 3 -4 3 -2.5625 1.25 C-1 0 -1 0 0 0 Z " fill="#B97821" transform="translate(621,456)"/>
<path d="M0 0 C0.66 0 1.32 0 2 0 C4 3 4 3 4 6 C2.68 6 1.36 6 0 6 C0 4.02 0 2.04 0 0 Z " fill="#CD973E" transform="translate(284,202)"/>
<path d="M0 0 C0.66 0 1.32 0 2 0 C6 4.35294118 6 4.35294118 6 8 C5.34 8 4.68 8 4 8 C0 2.58823529 0 2.58823529 0 0 Z " fill="#CB8D33" transform="translate(454,260)"/>
<path d="M0 0 C3.7952131 1.49097658 5.61042731 3.75700849 8 7 C5.05043472 5.63055898 2.47531189 4.12169591 0 2 C0 1.34 0 0.68 0 0 Z " fill="#D2A251" transform="translate(221,414)"/>
</svg>
